<svg data-v-70b83f88="" version="1.0" xmlns="http://www.w3.org/2000/svg" xmlns:xlink="http://www.w3.org/1999/xlink" viewBox="0 0 340.000000 250.000000" preserveAspectRatio="xMidYMid meet" color-interpolation-filters="sRGB" style="margin: auto;"><rect data-v-70b83f88="" x="0" y="0" width="100%" height="100%" fill="#e22027" fill-opacity="1" class="background"/><rect data-v-70b83f88="" x="0" y="0" width="100%" height="100%" fill="url(#watermark)" fill-opacity="1" class="watermarklayer"/><g data-v-70b83f88="" fill="#feffff" class="bordersvg b-d1" transform="translate(76.12935781478882,47.32500165385136)"><path fill-opacity="0" stroke="#feffff" stroke-width="4" d="M 155.35000610351562 58.55000305175781 A 77.67500305175781 77.67500305175781 0 1 0 155.35000610351562 96.80000305175781"/><g transform="translate(10,58.55000305175781)"><g><rect data-gra="graph-name-bg" stroke-width="2" class="i-icon-bg" x="0" y="0" width="175.35000610351562" height="38.25" fill-opacity="0"/><!----><!----></g><g transform="translate(10,3)"><g data-gra="path-name" fill-rule="" class="tp-name"><g transform="scale(1)"><g><path d="M18.18 0.18C21.43 0.18 24.21-0.23 26.51-1.05L26.38-1.5 25.33-1.18C24.63-1 23.6-0.8 22.23-0.59 20.87-0.38 19.64-0.27 18.56-0.27 17.49-0.27 16.57-0.32 15.81-0.41 15.05-0.5 14.03-0.84 12.76-1.44 11.48-2.03 10.39-2.82 9.5-3.83 8.6-4.83 7.81-6.37 7.11-8.45 6.41-10.53 6.06-12.8 6.06-15.26 6.06-17.72 6.26-19.8 6.65-21.5 7.32-24.51 8.47-26.79 10.11-28.34 12.27-30.43 14.96-31.48 18.18-31.48 20.67-31.48 22.95-31.07 25.01-30.25L25.15-30.71 24.33-31.03C23.75-31.24 22.89-31.44 21.73-31.64 20.58-31.84 19.39-31.94 18.18-31.94 13.93-31.94 10.3-30.83 7.29-28.61 5.74-27.43 4.52-25.75 3.62-23.58 2.73-21.4 2.28-18.95 2.28-16.22 2.28-13.49 2.58-11.16 3.19-9.25 3.8-7.33 4.59-5.8 5.56-4.65 8.29-1.43 12.5 0.18 18.18 0.18ZM48.61 0L48.61-0.46 35.08-0.46 35.08-31.89 31.3-31.89 31.3 0ZM49.98-15.17C49.98-12.41 50.33-10 51.05-7.95 51.76-5.9 52.76-4.3 54.03-3.14 56.49-0.93 59.65 0.18 63.51 0.18 67.97 0.18 71.54-1.21 74.21-4.01 76.89-6.8 78.22-10.93 78.22-16.4 78.22-21.87 76.97-25.85 74.46-28.34 71.96-30.83 68.6-32.07 64.37-32.07 60.15-32.07 56.7-30.64 54.01-27.77 51.32-24.9 49.98-20.7 49.98-15.17ZM56.7-27.52C58.66-30.25 61.17-31.62 64.24-31.62 67.3-31.62 69.77-30.39 71.64-27.93 73.51-25.47 74.44-21.62 74.44-16.38 74.44-11.14 73.46-7.15 71.5-4.4 69.54-1.65 67.02-0.27 63.94-0.27 60.86-0.27 58.39-1.49 56.54-3.92 54.68-6.35 53.76-10.21 53.76-15.49 53.76-20.77 54.74-24.78 56.7-27.52ZM105.15-31.89L105.15-13.71C105.15-9.04 104.27-5.63 102.53-3.49 100.78-1.34 98.45-0.27 95.54-0.27 94.23-0.27 93.11-0.44 92.19-0.77 91.26-1.11 90.37-1.73 89.52-2.64 87.85-4.5 87.02-8.19 87.02-13.71L87.02-31.89 83.23-31.89 83.23-13.67C83.23-7.96 84.45-4.16 86.88-2.28 88.06-1.34 89.32-0.69 90.66-0.34 92 0.01 93.62 0.18 95.54 0.18 98.57 0.18 101.03-0.93 102.92-3.17 104.8-5.4 105.74-8.9 105.74-13.67L105.74-31.89ZM121.28 0L121.28-31.44 129.2-31.44 129.2-31.89 109.61-31.89 109.61-31.44 117.49-31.44 117.49 0ZM132.85-11.39C132.85-7.41 133.98-4.49 136.24-2.62 138.5-0.75 141.43 0.18 145.01 0.18 148.6 0.18 151.59-0.95 154.01-3.21 156.42-5.47 157.63-8.2 157.63-11.39 157.63-15.37 156.5-18.29 154.24-20.16 151.97-22.03 149.05-22.96 145.47-22.96 141.88-22.96 138.88-21.83 136.47-19.57 134.05-17.3 132.85-14.58 132.85-11.39ZM136.49-11.39C136.49-14.49 137.34-17.13 139.04-19.32 140.74-21.5 142.85-22.6 145.38-22.6 147.9-22.6 149.96-21.69 151.57-19.86 153.18-18.04 153.99-15.22 153.99-11.39 153.99-8.29 153.14-5.65 151.44-3.46 149.73-1.28 147.62-0.18 145.1-0.18 142.58-0.18 140.52-1.09 138.91-2.92 137.3-4.74 136.49-7.56 136.49-11.39Z" transform="translate(-2.2799999713897705, 32.06999969482422)"/></g><!----><!----><!----><!----><!----><!----><!----></g></g><!----></g></g></g><defs v-gra="od"/></svg>